<?xml version="1.0" encoding="UTF-8"?><svg xmlns="http://www.w3.org/2000/svg" xmlns:xlink="http://www.w3.org/1999/xlink" width="375pt" zoomAndPan="magnify" viewBox="0 0 375 374.999991" height="374.999991pt" preserveAspectRatio="xMidYMid meet" version="1.2"><defs><g/><clipPath xml:id="clip1" id="clip1"><path d="M 82.34375 97 L 140 97 L 140 184.71875 L 82.34375 184.71875 Z M 82.34375 97 "/></clipPath><clipPath xml:id="clip2" id="clip2"><path d="M 235 97 L 292.644531 97 L 292.644531 184.425781 L 235 184.425781 Z M 235 97 "/></clipPath></defs><g xml:id="surface1" id="surface1"><rect x="0" width="375" y="0" height="374.999991" style="fill:rgb(100%,100%,100%);fill-opacity:1;stroke:none;"/><rect x="0" width="375" y="0" height="374.999991" style="fill:rgb(100%,100%,100%);fill-opacity:1;stroke:none;"/><rect x="0" width="375" y="0" height="374.999991" style="fill:rgb(100%,100%,100%);fill-opacity:1;stroke:none;"/><g style="fill:rgb(0%,0%,0%);fill-opacity:1;"><g transform="translate(67.396679, 239.749539)"><path style="stroke:none;" d="M 12.082031 -5.066406 C 11.46875 -3.75 9.976562 -2.851562 8.441406 -2.851562 C 6.03125 -2.851562 4.101562 -4.914062 4.101562 -7.457031 C 4.101562 -9.976562 6.03125 -12.0625 8.441406 -12.0625 C 9.957031 -12.0625 11.449219 -11.226562 12.0625 -9.890625 L 15.722656 -9.890625 C 14.714844 -12.9375 11.84375 -15.132812 8.441406 -15.132812 C 4.210938 -15.132812 0.765625 -11.6875 0.765625 -7.457031 C 0.765625 -3.222656 4.210938 0.21875 8.441406 0.21875 C 11.84375 0.21875 14.738281 -1.996094 15.746094 -5.066406 Z M 12.082031 -5.066406 "/></g></g><g style="fill:rgb(0%,0%,0%);fill-opacity:1;"><g transform="translate(88.074655, 239.749539)"><path style="stroke:none;" d="M 12.828125 -7.476562 C 12.828125 -5.175781 10.746094 -3.070312 8.441406 -3.070312 C 6.140625 -3.070312 4.058594 -5.175781 4.058594 -7.476562 C 4.058594 -9.78125 6.140625 -11.863281 8.441406 -11.863281 C 10.746094 -11.863281 12.828125 -9.78125 12.828125 -7.476562 Z M 16.117188 -7.457031 C 16.117188 -11.578125 12.566406 -15.132812 8.441406 -15.132812 C 4.320312 -15.132812 0.765625 -11.578125 0.765625 -7.457031 C 0.765625 -3.332031 4.320312 0.21875 8.441406 0.21875 C 12.566406 0.21875 16.117188 -3.332031 16.117188 -7.457031 Z M 16.117188 -7.457031 "/></g></g><g style="fill:rgb(0%,0%,0%);fill-opacity:1;"><g transform="translate(109.344634, 239.749539)"><path style="stroke:none;" d="M 13.027344 0 L 13.027344 -14.914062 L 9.738281 -14.914062 L 9.738281 -5.613281 L 4.605469 -14.914062 L 1.316406 -14.914062 L 1.316406 0 L 4.605469 0 L 4.605469 -9.296875 L 9.738281 0 Z M 13.027344 0 "/></g></g><g style="fill:rgb(0%,0%,0%);fill-opacity:1;"><g transform="translate(128.071224, 239.749539)"><path style="stroke:none;" d="M 13.027344 0 L 13.027344 -14.914062 L 9.738281 -14.914062 L 9.738281 -5.613281 L 4.605469 -14.914062 L 1.316406 -14.914062 L 1.316406 0 L 4.605469 0 L 4.605469 -9.296875 L 9.738281 0 Z M 13.027344 0 "/></g></g><g style="fill:rgb(0%,0%,0%);fill-opacity:1;"><g transform="translate(146.797809, 239.749539)"><path style="stroke:none;" d="M 9.957031 -2.984375 L 4.605469 -2.984375 L 4.605469 -5.988281 L 9.738281 -5.988281 L 9.738281 -8.96875 L 4.605469 -8.96875 L 4.605469 -11.929688 L 9.957031 -11.929688 L 9.957031 -14.914062 L 1.316406 -14.914062 L 1.316406 0 L 9.957031 0 Z M 9.957031 -2.984375 "/></g></g><g style="fill:rgb(0%,0%,0%);fill-opacity:1;"><g transform="translate(162.454778, 239.749539)"><path style="stroke:none;" d="M 12.082031 -5.066406 C 11.46875 -3.75 9.976562 -2.851562 8.441406 -2.851562 C 6.03125 -2.851562 4.101562 -4.914062 4.101562 -7.457031 C 4.101562 -9.976562 6.03125 -12.0625 8.441406 -12.0625 C 9.957031 -12.0625 11.449219 -11.226562 12.0625 -9.890625 L 15.722656 -9.890625 C 14.714844 -12.9375 11.84375 -15.132812 8.441406 -15.132812 C 4.210938 -15.132812 0.765625 -11.6875 0.765625 -7.457031 C 0.765625 -3.222656 4.210938 0.21875 8.441406 0.21875 C 11.84375 0.21875 14.738281 -1.996094 15.746094 -5.066406 Z M 12.082031 -5.066406 "/></g></g><g style="fill:rgb(0%,0%,0%);fill-opacity:1;"><g transform="translate(183.132752, 239.749539)"><path style="stroke:none;" d="M 7.652344 -11.929688 L 11.90625 -11.929688 L 11.90625 -14.914062 L 0.109375 -14.914062 L 0.109375 -11.929688 L 4.363281 -11.929688 L 4.363281 0 L 7.652344 0 Z M 7.652344 -11.929688 "/></g></g><g style="fill:rgb(0%,0%,0%);fill-opacity:1;"><g transform="translate(199.535201, 239.749539)"><path style="stroke:none;" d="M 12.828125 -7.476562 C 12.828125 -5.175781 10.746094 -3.070312 8.441406 -3.070312 C 6.140625 -3.070312 4.058594 -5.175781 4.058594 -7.476562 C 4.058594 -9.78125 6.140625 -11.863281 8.441406 -11.863281 C 10.746094 -11.863281 12.828125 -9.78125 12.828125 -7.476562 Z M 16.117188 -7.457031 C 16.117188 -11.578125 12.566406 -15.132812 8.441406 -15.132812 C 4.320312 -15.132812 0.765625 -11.578125 0.765625 -7.457031 C 0.765625 -3.332031 4.320312 0.21875 8.441406 0.21875 C 12.566406 0.21875 16.117188 -3.332031 16.117188 -7.457031 Z M 16.117188 -7.457031 "/></g></g><g style="fill:rgb(0%,0%,0%);fill-opacity:1;"><g transform="translate(220.805177, 239.749539)"><path style="stroke:none;" d="M 4.605469 -5.328125 L 4.628906 -5.328125 L 8.179688 0 L 12.347656 0 L 8.070312 -5.484375 C 9.957031 -5.941406 11.46875 -7.609375 11.46875 -10.132812 C 11.46875 -12.960938 9.320312 -14.914062 6.90625 -14.914062 L 1.316406 -14.914062 L 1.316406 0 L 4.605469 0 Z M 6.359375 -12.324219 C 7.324219 -12.324219 8.332031 -11.492188 8.332031 -10.132812 C 8.332031 -8.707031 7.324219 -7.917969 6.359375 -7.917969 L 4.605469 -7.917969 L 4.605469 -12.324219 Z M 6.359375 -12.324219 "/></g></g><g style="fill:rgb(0%,0%,0%);fill-opacity:1;"><g transform="translate(237.273396, 239.749539)"><path style="stroke:none;" d="M 9.738281 -5.988281 L 9.738281 -8.96875 L 4.605469 -8.96875 L 4.605469 -11.929688 L 9.957031 -11.929688 L 9.957031 -14.914062 L 1.316406 -14.914062 L 1.316406 0 L 4.605469 0 L 4.605469 -5.988281 Z M 9.738281 -5.988281 "/></g></g><g style="fill:rgb(0%,0%,0%);fill-opacity:1;"><g transform="translate(252.711108, 239.749539)"><path style="stroke:none;" d="M 4.605469 0 L 4.605469 -14.914062 L 1.316406 -14.914062 L 1.316406 0 Z M 4.605469 0 "/></g></g><g style="fill:rgb(0%,0%,0%);fill-opacity:1;"><g transform="translate(263.018195, 239.749539)"><path style="stroke:none;" d="M 11.667969 -2.984375 L 5.789062 -2.984375 L 12.019531 -14.914062 L 0.878906 -14.914062 L 0.878906 -11.929688 L 6.667969 -11.929688 L 0.4375 0 L 11.667969 0 Z M 11.667969 -2.984375 "/></g></g><g style="fill:rgb(0%,0%,0%);fill-opacity:1;"><g transform="translate(279.859158, 239.749539)"><path style="stroke:none;" d="M 9.957031 -2.984375 L 4.605469 -2.984375 L 4.605469 -5.988281 L 9.738281 -5.988281 L 9.738281 -8.96875 L 4.605469 -8.96875 L 4.605469 -11.929688 L 9.957031 -11.929688 L 9.957031 -14.914062 L 1.316406 -14.914062 L 1.316406 0 L 9.957031 0 Z M 9.957031 -2.984375 "/></g></g><g style="fill:rgb(0%,0%,0%);fill-opacity:1;"><g transform="translate(295.51614, 239.749539)"><path style="stroke:none;" d="M 4.605469 -5.328125 L 4.628906 -5.328125 L 8.179688 0 L 12.347656 0 L 8.070312 -5.484375 C 9.957031 -5.941406 11.46875 -7.609375 11.46875 -10.132812 C 11.46875 -12.960938 9.320312 -14.914062 6.90625 -14.914062 L 1.316406 -14.914062 L 1.316406 0 L 4.605469 0 Z M 6.359375 -12.324219 C 7.324219 -12.324219 8.332031 -11.492188 8.332031 -10.132812 C 8.332031 -8.707031 7.324219 -7.917969 6.359375 -7.917969 L 4.605469 -7.917969 L 4.605469 -12.324219 Z M 6.359375 -12.324219 "/></g></g><g style="fill:rgb(0%,43.919373%,75.289917%);fill-opacity:1;"><g transform="translate(43.09812, 265.249538)"><path style="stroke:none;" d="M 11.03125 1.222656 L 15.597656 -9.613281 L 13.894531 -9.613281 L 11.011719 -2.207031 L 7.910156 -10.117188 L 4.804688 -2.207031 L 1.921875 -9.613281 L 0.21875 -9.613281 L 4.828125 1.222656 L 7.910156 -6.53125 Z M 11.03125 1.222656 "/></g></g><g style="fill:rgb(0%,43.919373%,75.289917%);fill-opacity:1;"><g transform="translate(63.2836, 265.249538)"><path style="stroke:none;" d="M 3.167969 0 L 3.167969 -4.019531 C 3.167969 -5.351562 3.386719 -6.359375 3.84375 -7.058594 C 4.105469 -7.449219 4.433594 -7.734375 4.851562 -7.953125 C 5.242188 -8.171875 5.789062 -8.28125 6.445312 -8.28125 C 7.101562 -8.28125 7.558594 -8.039062 7.84375 -7.601562 C 8.128906 -7.164062 8.28125 -6.621094 8.28125 -6.007812 L 8.28125 0 L 9.808594 0 L 9.808594 -6.007812 C 9.808594 -7.121094 9.503906 -8.019531 8.9375 -8.695312 C 8.628906 -9.042969 8.28125 -9.308594 7.863281 -9.503906 C 7.429688 -9.699219 6.882812 -9.808594 6.203125 -9.808594 C 5.503906 -9.808594 4.914062 -9.613281 4.390625 -9.261719 C 3.890625 -8.9375 3.472656 -8.5 3.167969 -7.953125 L 3.167969 -16.386719 L 1.636719 -16.386719 L 1.636719 0 Z M 3.167969 0 "/></g></g><g style="fill:rgb(0%,43.919373%,75.289917%);fill-opacity:1;"><g transform="translate(78.772676, 265.249538)"><path style="stroke:none;" d="M 11.03125 -5.023438 C 11.03125 -6.335938 10.507812 -7.472656 9.503906 -8.453125 C 8.519531 -9.394531 7.339844 -9.875 6.007812 -9.875 C 4.609375 -9.875 3.429688 -9.371094 2.445312 -8.390625 C 1.464844 -7.40625 0.984375 -6.226562 0.984375 -4.851562 C 0.984375 -3.453125 1.464844 -2.273438 2.445312 -1.3125 C 2.90625 -0.851562 3.429688 -0.503906 4.042969 -0.242188 C 4.652344 0.0234375 5.375 0.152344 6.226562 0.152344 C 7.078125 0.152344 7.910156 -0.109375 8.738281 -0.632812 C 9.570312 -1.15625 10.179688 -1.902344 10.597656 -2.816406 L 8.847656 -2.816406 C 8.5 -2.359375 8.082031 -2.011719 7.582031 -1.746094 C 7.078125 -1.484375 6.554688 -1.375 6.007812 -1.375 C 5.179688 -1.375 4.433594 -1.636719 3.78125 -2.183594 C 3.125 -2.710938 2.710938 -3.386719 2.578125 -4.214844 L 11.03125 -4.214844 Z M 9.417969 -5.527344 L 2.601562 -5.527344 C 2.6875 -5.921875 2.839844 -6.292969 3.058594 -6.640625 C 3.757812 -7.777344 4.742188 -8.347656 6.007812 -8.347656 C 6.816406 -8.347656 7.539062 -8.082031 8.171875 -7.558594 C 8.828125 -7.011719 9.21875 -6.335938 9.417969 -5.527344 Z M 9.417969 -5.527344 "/></g></g><g style="fill:rgb(0%,43.919373%,75.289917%);fill-opacity:1;"><g transform="translate(95.048125, 265.249538)"><path style="stroke:none;" d="M 6.574219 -7.625 L 6.574219 -9.613281 C 6.269531 -9.742188 5.941406 -9.808594 5.613281 -9.808594 C 4.523438 -9.808594 3.734375 -9.199219 3.234375 -8.019531 L 3.167969 -7.625 L 3.167969 -9.613281 L 1.636719 -9.613281 L 1.636719 0 L 3.167969 0 L 3.167969 -4.804688 C 3.167969 -5.59375 3.34375 -6.292969 3.714844 -6.925781 C 3.890625 -7.253906 4.128906 -7.539062 4.414062 -7.757812 C 4.695312 -7.972656 5.046875 -8.105469 5.441406 -8.105469 C 5.832031 -8.105469 6.203125 -7.929688 6.574219 -7.625 Z M 6.574219 -7.625 "/></g></g><g style="fill:rgb(0%,43.919373%,75.289917%);fill-opacity:1;"><g transform="translate(106.212133, 265.249538)"><path style="stroke:none;" d="M 11.03125 -5.023438 C 11.03125 -6.335938 10.507812 -7.472656 9.503906 -8.453125 C 8.519531 -9.394531 7.339844 -9.875 6.007812 -9.875 C 4.609375 -9.875 3.429688 -9.371094 2.445312 -8.390625 C 1.464844 -7.40625 0.984375 -6.226562 0.984375 -4.851562 C 0.984375 -3.453125 1.464844 -2.273438 2.445312 -1.3125 C 2.90625 -0.851562 3.429688 -0.503906 4.042969 -0.242188 C 4.652344 0.0234375 5.375 0.152344 6.226562 0.152344 C 7.078125 0.152344 7.910156 -0.109375 8.738281 -0.632812 C 9.570312 -1.15625 10.179688 -1.902344 10.597656 -2.816406 L 8.847656 -2.816406 C 8.5 -2.359375 8.082031 -2.011719 7.582031 -1.746094 C 7.078125 -1.484375 6.554688 -1.375 6.007812 -1.375 C 5.179688 -1.375 4.433594 -1.636719 3.78125 -2.183594 C 3.125 -2.710938 2.710938 -3.386719 2.578125 -4.214844 L 11.03125 -4.214844 Z M 9.417969 -5.527344 L 2.601562 -5.527344 C 2.6875 -5.921875 2.839844 -6.292969 3.058594 -6.640625 C 3.757812 -7.777344 4.742188 -8.347656 6.007812 -8.347656 C 6.816406 -8.347656 7.539062 -8.082031 8.171875 -7.558594 C 8.828125 -7.011719 9.21875 -6.335938 9.417969 -5.527344 Z M 9.417969 -5.527344 "/></g></g><g style="fill:rgb(0%,43.919373%,75.289917%);fill-opacity:1;"><g transform="translate(122.487576, 265.249538)"><path style="stroke:none;" d=""/></g></g><g style="fill:rgb(0%,43.919373%,75.289917%);fill-opacity:1;"><g transform="translate(132.755993, 265.249538)"><path style="stroke:none;" d="M 8.28125 0 L 9.808594 0 L 9.808594 -6.007812 C 9.808594 -7.121094 9.503906 -8.019531 8.9375 -8.695312 C 8.628906 -9.042969 8.28125 -9.308594 7.863281 -9.503906 C 7.429688 -9.699219 6.882812 -9.808594 6.203125 -9.808594 C 5.503906 -9.808594 4.914062 -9.613281 4.390625 -9.261719 C 3.890625 -8.9375 3.472656 -8.5 3.167969 -7.953125 L 3.167969 -9.613281 L 1.636719 -9.613281 L 1.636719 0 L 3.167969 0 L 3.167969 -4.019531 C 3.167969 -5.242188 3.386719 -6.203125 3.84375 -6.925781 C 4.105469 -7.320312 4.433594 -7.648438 4.851562 -7.910156 C 5.242188 -8.148438 5.789062 -8.28125 6.445312 -8.28125 C 7.101562 -8.28125 7.558594 -8.039062 7.84375 -7.601562 C 8.128906 -7.164062 8.28125 -6.621094 8.28125 -6.007812 Z M 8.28125 0 "/></g></g><g style="fill:rgb(0%,43.919373%,75.289917%);fill-opacity:1;"><g transform="translate(148.245067, 265.249538)"><path style="stroke:none;" d="M 11.03125 -5.023438 C 11.03125 -6.335938 10.507812 -7.472656 9.503906 -8.453125 C 8.519531 -9.394531 7.339844 -9.875 6.007812 -9.875 C 4.609375 -9.875 3.429688 -9.371094 2.445312 -8.390625 C 1.464844 -7.40625 0.984375 -6.226562 0.984375 -4.851562 C 0.984375 -3.453125 1.464844 -2.273438 2.445312 -1.3125 C 2.90625 -0.851562 3.429688 -0.503906 4.042969 -0.242188 C 4.652344 0.0234375 5.375 0.152344 6.226562 0.152344 C 7.078125 0.152344 7.910156 -0.109375 8.738281 -0.632812 C 9.570312 -1.15625 10.179688 -1.902344 10.597656 -2.816406 L 8.847656 -2.816406 C 8.5 -2.359375 8.082031 -2.011719 7.582031 -1.746094 C 7.078125 -1.484375 6.554688 -1.375 6.007812 -1.375 C 5.179688 -1.375 4.433594 -1.636719 3.78125 -2.183594 C 3.125 -2.710938 2.710938 -3.386719 2.578125 -4.214844 L 11.03125 -4.214844 Z M 9.417969 -5.527344 L 2.601562 -5.527344 C 2.6875 -5.921875 2.839844 -6.292969 3.058594 -6.640625 C 3.757812 -7.777344 4.742188 -8.347656 6.007812 -8.347656 C 6.816406 -8.347656 7.539062 -8.082031 8.171875 -7.558594 C 8.828125 -7.011719 9.21875 -6.335938 9.417969 -5.527344 Z M 9.417969 -5.527344 "/></g></g><g style="fill:rgb(0%,43.919373%,75.289917%);fill-opacity:1;"><g transform="translate(164.52051, 265.249538)"><path style="stroke:none;" d="M 11.03125 -5.023438 C 11.03125 -6.335938 10.507812 -7.472656 9.503906 -8.453125 C 8.519531 -9.394531 7.339844 -9.875 6.007812 -9.875 C 4.609375 -9.875 3.429688 -9.371094 2.445312 -8.390625 C 1.464844 -7.40625 0.984375 -6.226562 0.984375 -4.851562 C 0.984375 -3.453125 1.464844 -2.273438 2.445312 -1.3125 C 2.90625 -0.851562 3.429688 -0.503906 4.042969 -0.242188 C 4.652344 0.0234375 5.375 0.152344 6.226562 0.152344 C 7.078125 0.152344 7.910156 -0.109375 8.738281 -0.632812 C 9.570312 -1.15625 10.179688 -1.902344 10.597656 -2.816406 L 8.847656 -2.816406 C 8.5 -2.359375 8.082031 -2.011719 7.582031 -1.746094 C 7.078125 -1.484375 6.554688 -1.375 6.007812 -1.375 C 5.179688 -1.375 4.433594 -1.636719 3.78125 -2.183594 C 3.125 -2.710938 2.710938 -3.386719 2.578125 -4.214844 L 11.03125 -4.214844 Z M 9.417969 -5.527344 L 2.601562 -5.527344 C 2.6875 -5.921875 2.839844 -6.292969 3.058594 -6.640625 C 3.757812 -7.777344 4.742188 -8.347656 6.007812 -8.347656 C 6.816406 -8.347656 7.539062 -8.082031 8.171875 -7.558594 C 8.828125 -7.011719 9.21875 -6.335938 9.417969 -5.527344 Z M 9.417969 -5.527344 "/></g></g><g style="fill:rgb(0%,43.919373%,75.289917%);fill-opacity:1;"><g transform="translate(180.795953, 265.249538)"><path style="stroke:none;" d="M 9.285156 -4.804688 C 9.285156 -3.867188 8.957031 -3.035156 8.300781 -2.359375 C 7.648438 -1.660156 6.839844 -1.3125 5.898438 -1.3125 C 4.9375 -1.3125 4.128906 -1.660156 3.472656 -2.359375 C 2.816406 -3.035156 2.511719 -3.867188 2.511719 -4.804688 C 2.511719 -5.722656 2.816406 -6.554688 3.472656 -7.253906 C 4.128906 -7.953125 4.9375 -8.300781 5.898438 -8.300781 C 6.839844 -8.300781 7.648438 -7.953125 8.300781 -7.253906 C 8.957031 -6.554688 9.285156 -5.722656 9.285156 -4.804688 Z M 10.816406 0 L 10.816406 -16.386719 L 9.285156 -16.386719 L 9.285156 -7.953125 C 9.199219 -8.082031 9.089844 -8.191406 9 -8.300781 C 8.082031 -9.308594 6.96875 -9.832031 5.660156 -9.832031 C 4.324219 -9.832031 3.210938 -9.308594 2.292969 -8.300781 C 1.421875 -7.296875 0.984375 -6.140625 0.984375 -4.804688 C 0.984375 -3.453125 1.421875 -2.292969 2.292969 -1.3125 C 3.210938 -0.285156 4.324219 0.21875 5.660156 0.21875 C 6.96875 0.21875 8.082031 -0.285156 9 -1.3125 C 9.089844 -1.398438 9.199219 -1.507812 9.285156 -1.636719 L 9.285156 0 Z M 10.816406 0 "/></g></g><g style="fill:rgb(0%,43.919373%,75.289917%);fill-opacity:1;"><g transform="translate(197.617496, 265.249538)"><path style="stroke:none;" d="M 3.015625 -1.355469 C 2.644531 -1.617188 2.359375 -2.054688 2.207031 -2.6875 L 0.589844 -2.6875 C 0.917969 -0.699219 2.183594 0.285156 4.414062 0.285156 C 4.9375 0.285156 5.417969 0.242188 5.878906 0.109375 C 6.335938 -0.0234375 6.730469 -0.195312 7.101562 -0.4375 C 7.84375 -0.9375 8.214844 -1.703125 8.214844 -2.730469 C 8.214844 -3.78125 7.734375 -4.523438 6.730469 -5.003906 C 6.3125 -5.199219 5.855469 -5.351562 5.351562 -5.460938 C 4.871094 -5.570312 4.414062 -5.703125 4 -5.832031 C 3.5625 -5.964844 3.210938 -6.140625 2.925781 -6.335938 C 2.644531 -6.53125 2.492188 -6.839844 2.492188 -7.273438 C 2.492188 -7.710938 2.664062 -8.039062 3.015625 -8.238281 C 3.363281 -8.453125 3.78125 -8.5625 4.238281 -8.5625 C 4.71875 -8.5625 5.132812 -8.453125 5.460938 -8.28125 C 5.789062 -8.105469 6.050781 -7.757812 6.203125 -7.230469 L 7.84375 -7.230469 C 7.648438 -8.191406 7.230469 -8.871094 6.621094 -9.242188 C 5.984375 -9.632812 5.222656 -9.832031 4.28125 -9.832031 C 3.363281 -9.832031 2.554688 -9.570312 1.878906 -9.089844 C 1.222656 -8.585938 0.875 -7.863281 0.875 -6.902344 C 0.875 -6.445312 1.003906 -6.03125 1.246094 -5.679688 C 1.507812 -5.308594 1.878906 -5.023438 2.359375 -4.804688 C 2.796875 -4.609375 3.253906 -4.457031 3.734375 -4.324219 C 4.214844 -4.214844 4.675781 -4.085938 5.113281 -3.953125 C 6.09375 -3.625 6.597656 -3.144531 6.597656 -2.535156 C 6.597656 -1.484375 5.898438 -0.984375 4.5 -0.984375 C 3.910156 -0.984375 3.410156 -1.09375 3.015625 -1.355469 Z M 3.015625 -1.355469 "/></g></g><g style="fill:rgb(0%,43.919373%,75.289917%);fill-opacity:1;"><g transform="translate(210.769286, 265.249538)"><path style="stroke:none;" d=""/></g></g><g style="fill:rgb(0%,43.919373%,75.289917%);fill-opacity:1;"><g transform="translate(221.037703, 265.249538)"><path style="stroke:none;" d="M 10.617188 -6.160156 C 10.3125 -7.230469 9.722656 -8.105469 8.871094 -8.78125 C 7.972656 -9.460938 6.992188 -9.808594 5.898438 -9.808594 C 4.523438 -9.808594 3.34375 -9.308594 2.402344 -8.324219 C 1.441406 -7.339844 0.984375 -6.160156 0.984375 -4.804688 C 0.984375 -3.429688 1.441406 -2.273438 2.402344 -1.265625 C 2.839844 -0.808594 3.34375 -0.4375 3.953125 -0.175781 C 4.542969 0.0859375 5.15625 0.21875 5.769531 0.21875 C 6.378906 0.21875 6.925781 0.152344 7.40625 -0.0234375 C 8.9375 -0.566406 9.984375 -1.59375 10.53125 -3.144531 L 8.804688 -3.144531 C 8.5 -2.601562 8.105469 -2.164062 7.582031 -1.855469 C 7.058594 -1.53125 6.511719 -1.375 5.898438 -1.375 C 4.960938 -1.375 4.171875 -1.703125 3.515625 -2.382812 C 2.863281 -3.058594 2.554688 -3.867188 2.554688 -4.804688 C 2.554688 -5.703125 2.863281 -6.511719 3.515625 -7.1875 C 3.824219 -7.492188 4.171875 -7.757812 4.589844 -7.929688 C 4.980469 -8.105469 5.484375 -8.214844 6.050781 -8.214844 C 6.621094 -8.214844 7.164062 -8.019531 7.734375 -7.648438 C 8.28125 -7.253906 8.695312 -6.773438 8.957031 -6.160156 Z M 10.617188 -6.160156 "/></g></g><g style="fill:rgb(0%,43.919373%,75.289917%);fill-opacity:1;"><g transform="translate(236.788903, 265.249538)"><path style="stroke:none;" d="M 9.503906 -4.851562 C 9.503906 -3.890625 9.152344 -3.082031 8.476562 -2.402344 C 7.777344 -1.703125 6.96875 -1.375 6.007812 -1.375 C 5.046875 -1.375 4.214844 -1.703125 3.539062 -2.402344 C 2.839844 -3.082031 2.511719 -3.890625 2.511719 -4.851562 C 2.511719 -5.8125 2.839844 -6.621094 3.539062 -7.320312 C 4.214844 -7.996094 5.046875 -8.347656 6.007812 -8.347656 C 6.96875 -8.347656 7.777344 -7.996094 8.476562 -7.320312 C 9.152344 -6.621094 9.503906 -5.8125 9.503906 -4.851562 Z M 11.03125 -4.851562 C 11.03125 -6.226562 10.53125 -7.40625 9.546875 -8.390625 C 8.5625 -9.371094 7.382812 -9.875 6.007812 -9.875 C 4.609375 -9.875 3.429688 -9.371094 2.445312 -8.390625 C 1.464844 -7.40625 0.984375 -6.226562 0.984375 -4.851562 C 0.984375 -3.453125 1.464844 -2.273438 2.445312 -1.3125 C 3.429688 -0.328125 4.632812 0.152344 6.007812 0.152344 C 7.363281 0.152344 8.5625 -0.328125 9.546875 -1.3125 C 10.53125 -2.273438 11.03125 -3.453125 11.03125 -4.851562 Z M 11.03125 -4.851562 "/></g></g><g style="fill:rgb(0%,43.919373%,75.289917%);fill-opacity:1;"><g transform="translate(253.173569, 265.249538)"><path style="stroke:none;" d="M 3.191406 -12.933594 C 2.992188 -13.109375 2.753906 -13.21875 2.492188 -13.21875 C 2.226562 -13.21875 1.988281 -13.109375 1.8125 -12.933594 C 1.617188 -12.738281 1.53125 -12.496094 1.53125 -12.234375 C 1.53125 -11.972656 1.617188 -11.730469 1.8125 -11.558594 C 1.988281 -11.359375 2.226562 -11.273438 2.492188 -11.273438 C 2.753906 -11.273438 2.992188 -11.359375 3.191406 -11.558594 C 3.363281 -11.730469 3.472656 -11.972656 3.472656 -12.234375 C 3.472656 -12.496094 3.363281 -12.738281 3.191406 -12.933594 Z M 3.277344 0 L 3.277344 -9.613281 L 1.746094 -9.613281 L 1.746094 0 Z M 3.277344 0 "/></g></g><g style="fill:rgb(0%,43.919373%,75.289917%);fill-opacity:1;"><g transform="translate(262.546394, 265.249538)"><path style="stroke:none;" d="M 8.28125 0 L 9.808594 0 L 9.808594 -6.007812 C 9.808594 -7.121094 9.503906 -8.019531 8.9375 -8.695312 C 8.628906 -9.042969 8.28125 -9.308594 7.863281 -9.503906 C 7.429688 -9.699219 6.882812 -9.808594 6.203125 -9.808594 C 5.503906 -9.808594 4.914062 -9.613281 4.390625 -9.261719 C 3.890625 -8.9375 3.472656 -8.5 3.167969 -7.953125 L 3.167969 -9.613281 L 1.636719 -9.613281 L 1.636719 0 L 3.167969 0 L 3.167969 -4.019531 C 3.167969 -5.242188 3.386719 -6.203125 3.84375 -6.925781 C 4.105469 -7.320312 4.433594 -7.648438 4.851562 -7.910156 C 5.242188 -8.148438 5.789062 -8.28125 6.445312 -8.28125 C 7.101562 -8.28125 7.558594 -8.039062 7.84375 -7.601562 C 8.128906 -7.164062 8.28125 -6.621094 8.28125 -6.007812 Z M 8.28125 0 "/></g></g><g style="fill:rgb(0%,43.919373%,75.289917%);fill-opacity:1;"><g transform="translate(278.035468, 265.249538)"><path style="stroke:none;" d="M 10.617188 -6.160156 C 10.3125 -7.230469 9.722656 -8.105469 8.871094 -8.78125 C 7.972656 -9.460938 6.992188 -9.808594 5.898438 -9.808594 C 4.523438 -9.808594 3.34375 -9.308594 2.402344 -8.324219 C 1.441406 -7.339844 0.984375 -6.160156 0.984375 -4.804688 C 0.984375 -3.429688 1.441406 -2.273438 2.402344 -1.265625 C 2.839844 -0.808594 3.34375 -0.4375 3.953125 -0.175781 C 4.542969 0.0859375 5.15625 0.21875 5.769531 0.21875 C 6.378906 0.21875 6.925781 0.152344 7.40625 -0.0234375 C 8.9375 -0.566406 9.984375 -1.59375 10.53125 -3.144531 L 8.804688 -3.144531 C 8.5 -2.601562 8.105469 -2.164062 7.582031 -1.855469 C 7.058594 -1.53125 6.511719 -1.375 5.898438 -1.375 C 4.960938 -1.375 4.171875 -1.703125 3.515625 -2.382812 C 2.863281 -3.058594 2.554688 -3.867188 2.554688 -4.804688 C 2.554688 -5.703125 2.863281 -6.511719 3.515625 -7.1875 C 3.824219 -7.492188 4.171875 -7.757812 4.589844 -7.929688 C 4.980469 -8.105469 5.484375 -8.214844 6.050781 -8.214844 C 6.621094 -8.214844 7.164062 -8.019531 7.734375 -7.648438 C 8.28125 -7.253906 8.695312 -6.773438 8.957031 -6.160156 Z M 10.617188 -6.160156 "/></g></g><g style="fill:rgb(0%,43.919373%,75.289917%);fill-opacity:1;"><g transform="translate(293.786679, 265.249538)"><path style="stroke:none;" d="M 3.191406 -12.933594 C 2.992188 -13.109375 2.753906 -13.21875 2.492188 -13.21875 C 2.226562 -13.21875 1.988281 -13.109375 1.8125 -12.933594 C 1.617188 -12.738281 1.53125 -12.496094 1.53125 -12.234375 C 1.53125 -11.972656 1.617188 -11.730469 1.8125 -11.558594 C 1.988281 -11.359375 2.226562 -11.273438 2.492188 -11.273438 C 2.753906 -11.273438 2.992188 -11.359375 3.191406 -11.558594 C 3.363281 -11.730469 3.472656 -11.972656 3.472656 -12.234375 C 3.472656 -12.496094 3.363281 -12.738281 3.191406 -12.933594 Z M 3.277344 0 L 3.277344 -9.613281 L 1.746094 -9.613281 L 1.746094 0 Z M 3.277344 0 "/></g></g><g style="fill:rgb(0%,43.919373%,75.289917%);fill-opacity:1;"><g transform="translate(303.159504, 265.249538)"><path style="stroke:none;" d="M 9.285156 -4.804688 C 9.285156 -3.867188 8.957031 -3.035156 8.300781 -2.359375 C 7.648438 -1.660156 6.839844 -1.3125 5.898438 -1.3125 C 4.9375 -1.3125 4.128906 -1.660156 3.472656 -2.359375 C 2.816406 -3.035156 2.511719 -3.867188 2.511719 -4.804688 C 2.511719 -5.722656 2.816406 -6.554688 3.472656 -7.253906 C 4.128906 -7.953125 4.9375 -8.300781 5.898438 -8.300781 C 6.839844 -8.300781 7.648438 -7.953125 8.300781 -7.253906 C 8.957031 -6.554688 9.285156 -5.722656 9.285156 -4.804688 Z M 10.816406 0 L 10.816406 -16.386719 L 9.285156 -16.386719 L 9.285156 -7.953125 C 9.199219 -8.082031 9.089844 -8.191406 9 -8.300781 C 8.082031 -9.308594 6.96875 -9.832031 5.660156 -9.832031 C 4.324219 -9.832031 3.210938 -9.308594 2.292969 -8.300781 C 1.421875 -7.296875 0.984375 -6.140625 0.984375 -4.804688 C 0.984375 -3.453125 1.421875 -2.292969 2.292969 -1.3125 C 3.210938 -0.285156 4.324219 0.21875 5.660156 0.21875 C 6.96875 0.21875 8.082031 -0.285156 9 -1.3125 C 9.089844 -1.398438 9.199219 -1.507812 9.285156 -1.636719 L 9.285156 0 Z M 10.816406 0 "/></g></g><g style="fill:rgb(0%,43.919373%,75.289917%);fill-opacity:1;"><g transform="translate(319.981059, 265.249538)"><path style="stroke:none;" d="M 11.03125 -5.023438 C 11.03125 -6.335938 10.507812 -7.472656 9.503906 -8.453125 C 8.519531 -9.394531 7.339844 -9.875 6.007812 -9.875 C 4.609375 -9.875 3.429688 -9.371094 2.445312 -8.390625 C 1.464844 -7.40625 0.984375 -6.226562 0.984375 -4.851562 C 0.984375 -3.453125 1.464844 -2.273438 2.445312 -1.3125 C 2.90625 -0.851562 3.429688 -0.503906 4.042969 -0.242188 C 4.652344 0.0234375 5.375 0.152344 6.226562 0.152344 C 7.078125 0.152344 7.910156 -0.109375 8.738281 -0.632812 C 9.570312 -1.15625 10.179688 -1.902344 10.597656 -2.816406 L 8.847656 -2.816406 C 8.5 -2.359375 8.082031 -2.011719 7.582031 -1.746094 C 7.078125 -1.484375 6.554688 -1.375 6.007812 -1.375 C 5.179688 -1.375 4.433594 -1.636719 3.78125 -2.183594 C 3.125 -2.710938 2.710938 -3.386719 2.578125 -4.214844 L 11.03125 -4.214844 Z M 9.417969 -5.527344 L 2.601562 -5.527344 C 2.6875 -5.921875 2.839844 -6.292969 3.058594 -6.640625 C 3.757812 -7.777344 4.742188 -8.347656 6.007812 -8.347656 C 6.816406 -8.347656 7.539062 -8.082031 8.171875 -7.558594 C 8.828125 -7.011719 9.21875 -6.335938 9.417969 -5.527344 Z M 9.417969 -5.527344 "/></g></g><path style=" stroke:none;fill-rule:nonzero;fill:rgb(0%,43.919373%,75.289917%);fill-opacity:1;" d="M 187.519531 95.71875 C 186.042969 95.71875 184.574219 95.792969 183.105469 95.9375 C 181.640625 96.082031 180.183594 96.296875 178.738281 96.585938 C 177.292969 96.871094 175.867188 97.230469 174.457031 97.65625 C 173.042969 98.085938 171.660156 98.582031 170.296875 99.144531 C 168.9375 99.710938 167.605469 100.339844 166.304688 101.035156 C 165.003906 101.726562 163.742188 102.484375 162.515625 103.304688 C 161.292969 104.121094 160.109375 105 158.96875 105.933594 C 157.832031 106.871094 156.742188 107.859375 155.699219 108.902344 C 154.65625 109.941406 153.667969 111.035156 152.734375 112.171875 C 151.796875 113.3125 150.921875 114.492188 150.101562 115.71875 C 149.28125 116.945312 148.527344 118.207031 147.832031 119.507812 C 147.136719 120.808594 146.507812 122.136719 145.945312 123.5 C 145.378906 124.859375 144.882812 126.246094 144.457031 127.65625 C 144.027344 129.066406 143.671875 130.496094 143.382812 131.941406 C 143.09375 133.386719 142.878906 134.84375 142.734375 136.308594 C 142.589844 137.777344 142.519531 139.246094 142.519531 140.71875 C 142.519531 142.195312 142.589844 143.664062 142.734375 145.132812 C 142.878906 146.597656 143.09375 148.054688 143.382812 149.5 C 143.671875 150.945312 144.027344 152.371094 144.457031 153.78125 C 144.882812 155.191406 145.378906 156.578125 145.945312 157.941406 C 146.507812 159.300781 147.136719 160.632812 147.832031 161.933594 C 148.527344 163.234375 149.28125 164.496094 150.101562 165.722656 C 150.921875 166.945312 151.796875 168.128906 152.734375 169.269531 C 153.667969 170.40625 154.65625 171.496094 155.699219 172.539062 C 156.742188 173.582031 157.832031 174.570312 158.96875 175.503906 C 160.109375 176.441406 161.292969 177.316406 162.515625 178.136719 C 163.742188 178.957031 165.003906 179.710938 166.304688 180.40625 C 167.605469 181.101562 168.9375 181.730469 170.296875 182.292969 C 171.660156 182.859375 173.042969 183.355469 174.457031 183.78125 C 175.867188 184.210938 177.292969 184.566406 178.738281 184.855469 C 180.183594 185.144531 181.640625 185.359375 183.105469 185.503906 C 184.574219 185.648438 186.042969 185.71875 187.519531 185.71875 C 188.992188 185.71875 190.460938 185.648438 191.929688 185.503906 C 193.394531 185.359375 194.851562 185.144531 196.296875 184.855469 C 197.742188 184.566406 199.171875 184.210938 200.582031 183.78125 C 201.992188 183.355469 203.378906 182.859375 204.738281 182.292969 C 206.101562 181.730469 207.429688 181.101562 208.730469 180.40625 C 210.03125 179.710938 211.292969 178.957031 212.519531 178.136719 C 213.742188 177.316406 214.925781 176.441406 216.066406 175.503906 C 217.203125 174.570312 218.296875 173.582031 219.335938 172.539062 C 220.378906 171.496094 221.367188 170.40625 222.304688 169.269531 C 223.238281 168.128906 224.117188 166.945312 224.933594 165.722656 C 225.753906 164.496094 226.507812 163.234375 227.203125 161.933594 C 227.898438 160.632812 228.527344 159.300781 229.09375 157.941406 C 229.65625 156.578125 230.152344 155.191406 230.582031 153.78125 C 231.007812 152.371094 231.367188 150.945312 231.652344 149.5 C 231.941406 148.054688 232.15625 146.597656 232.300781 145.132812 C 232.445312 143.664062 232.519531 142.195312 232.519531 140.71875 C 232.519531 139.246094 232.445312 137.777344 232.300781 136.308594 C 232.15625 134.84375 231.941406 133.386719 231.652344 131.941406 C 231.367188 130.496094 231.007812 129.066406 230.582031 127.65625 C 230.152344 126.246094 229.65625 124.859375 229.09375 123.5 C 228.527344 122.136719 227.898438 120.808594 227.203125 119.507812 C 226.507812 118.207031 225.753906 116.945312 224.933594 115.71875 C 224.117188 114.492188 223.238281 113.3125 222.304688 112.171875 C 221.367188 111.035156 220.378906 109.941406 219.335938 108.902344 C 218.296875 107.859375 217.203125 106.871094 216.066406 105.933594 C 214.925781 105 213.742188 104.121094 212.519531 103.304688 C 211.292969 102.484375 210.03125 101.726562 208.730469 101.035156 C 207.429688 100.339844 206.101562 99.710938 204.738281 99.144531 C 203.378906 98.582031 201.992188 98.085938 200.582031 97.65625 C 199.171875 97.230469 197.742188 96.871094 196.296875 96.585938 C 194.851562 96.296875 193.394531 96.082031 191.929688 95.9375 C 190.460938 95.792969 188.992188 95.71875 187.519531 95.71875 Z M 187.519531 95.71875 "/><g style="fill:rgb(100%,100%,100%);fill-opacity:1;"><g transform="translate(167.831287, 158.552178)"><path style="stroke:none;" d="M 29.167969 -12.226562 C 27.683594 -9.050781 24.085938 -6.882812 20.378906 -6.882812 C 14.558594 -6.882812 9.898438 -11.859375 9.898438 -17.996094 C 9.898438 -24.085938 14.558594 -29.113281 20.378906 -29.113281 C 24.03125 -29.113281 27.632812 -27.101562 29.113281 -23.875 L 37.953125 -23.875 C 35.519531 -31.230469 28.585938 -36.523438 20.378906 -36.523438 C 10.164062 -36.523438 1.851562 -28.214844 1.851562 -17.996094 C 1.851562 -7.78125 10.164062 0.53125 20.378906 0.53125 C 28.585938 0.53125 35.574219 -4.816406 38.007812 -12.226562 Z M 29.167969 -12.226562 "/></g></g><g clip-rule="nonzero" clip-path="url(#clip1)"><path style=" stroke:none;fill-rule:nonzero;fill:rgb(0%,43.919373%,75.289917%);fill-opacity:1;" d="M 96.605469 97.265625 C 96.089844 97.273438 95.605469 97.472656 95.234375 97.835938 L 83.363281 109.648438 C 82.59375 110.421875 82.585938 111.671875 83.347656 112.445312 L 111.402344 140.808594 L 83.125 168.941406 C 82.347656 169.710938 82.339844 170.964844 83.109375 171.734375 L 94.890625 183.640625 C 95.660156 184.417969 96.90625 184.425781 97.675781 183.65625 L 139.238281 142.320312 C 140.007812 141.550781 140.015625 140.296875 139.246094 139.519531 L 98.03125 97.851562 C 97.652344 97.464844 97.136719 97.257812 96.605469 97.265625 Z M 96.605469 97.265625 "/></g><g clip-rule="nonzero" clip-path="url(#clip2)"><path style=" stroke:none;fill-rule:nonzero;fill:rgb(0%,43.919373%,75.289917%);fill-opacity:1;" d="M 278.382812 184.132812 C 278.898438 184.125 279.382812 183.921875 279.753906 183.558594 L 291.625 171.75 C 292.394531 170.976562 292.402344 169.726562 291.640625 168.953125 L 263.585938 140.589844 L 291.863281 112.457031 C 292.640625 111.683594 292.648438 110.433594 291.878906 109.660156 L 280.097656 97.757812 C 279.328125 96.976562 278.082031 96.96875 277.3125 97.742188 L 235.75 139.074219 C 234.980469 139.847656 234.972656 141.097656 235.742188 141.878906 L 276.957031 183.542969 C 277.335938 183.929688 277.851562 184.140625 278.382812 184.132812 Z M 278.382812 184.132812 "/></g></g></svg>